<svg width="30.829102" height="25.074951" viewBox="0 0 30.8291 25.075" fill="none" xmlns="http://www.w3.org/2000/svg" xmlns:xlink="http://www.w3.org/1999/xlink">
	<desc>
			Created with Pixso.
	</desc>
	<defs/>
	<path id="Subtract" d="M29.9553 3.50415L27.702 3.50415L27.702 0.553711C27.702 0.247803 27.4413 0 27.1187 0C26.147 0 25.2541 0.0849609 24.4189 0.223877L24.4062 0.218506L24.3661 0.233154C22.5175 0.547363 20.9919 1.15796 19.7488 1.90137C19.7401 1.90649 19.7308 1.91162 19.722 1.91675C17.8047 3.07007 16.5515 4.52295 15.8019 5.63599C15.6603 5.78003 15.5303 5.92163 15.4145 6.05664C14.4974 4.98462 12.762 3.50415 10.1654 3.50415L0.874756 3.50415C0.391663 3.50415 0 3.87573 0 4.33374L0 21.0564C0 21.5144 0.391663 21.8867 0.874756 21.8867L10.1031 21.8867C12.6071 21.8867 14.6639 24.6746 14.6936 24.7148C14.6959 24.7183 14.6998 24.7202 14.7018 24.7234C14.7375 24.7708 14.7781 24.8137 14.8225 24.853C14.835 24.8643 14.8491 24.8738 14.8625 24.8848C14.9011 24.9148 14.9418 24.9417 14.986 24.9658C14.9971 24.9707 15.0074 24.9788 15.0192 24.9846C15.0623 25.0051 15.1074 25.0229 15.1555 25.0371C15.1651 25.0398 15.175 25.0415 15.1846 25.0437C15.2017 25.0483 15.2184 25.051 15.2349 25.0547C15.2904 25.0657 15.3464 25.0728 15.4027 25.0737C15.4064 25.0737 15.41 25.075 15.4145 25.075C15.4782 25.075 15.5428 25.0667 15.6064 25.0525C15.6158 25.0503 15.6257 25.0491 15.6351 25.0464C15.6478 25.0437 15.6603 25.0422 15.673 25.0386C15.7226 25.0237 15.771 25.0042 15.8156 24.9819C15.8195 24.9797 15.8231 24.9778 15.827 24.9761C15.8801 24.9485 15.9293 24.9163 15.9743 24.8796C15.9838 24.8718 15.9932 24.865 16.0032 24.8574C16.0498 24.8164 16.092 24.7715 16.1282 24.7224C16.1304 24.7195 16.1334 24.7175 16.1355 24.7148C16.1564 24.6865 18.2169 21.8867 20.7264 21.8867L29.9553 21.8867C30.4384 21.8867 30.8291 21.5144 30.8291 21.0564L30.8291 4.33374C30.8291 3.87573 30.4384 3.50415 29.9553 3.50415ZM29.0809 20.2263L20.7264 20.2263C20.3845 20.2263 20.0529 20.26 19.7317 20.321C21.5369 18.9775 23.9919 17.8298 27.1187 17.8298C27.4413 17.8298 27.702 17.582 27.702 17.2764L27.702 5.16431L29.0809 5.16431L29.0809 20.2263ZM4.92102 9.89502C5.67767 9.15552 6.70386 8.73999 7.77393 8.73999C8.84399 8.73999 9.87024 9.15552 10.6269 9.89502C11.3835 10.6345 11.8086 11.6377 11.8086 12.6836L10.2956 12.6836C10.0281 12.6836 9.77155 12.7876 9.5824 12.9724C9.39319 13.1572 9.28693 13.408 9.28693 13.6697L9.28693 16.1343C9.28693 16.3958 9.39319 16.6465 9.5824 16.8315C9.77155 17.0164 10.0281 17.1204 10.2956 17.1204L11.8086 17.1204C12.0761 17.1204 12.3327 17.0164 12.5219 16.8315C12.711 16.6465 12.8173 16.3958 12.8173 16.1343L12.8173 12.6836C12.8173 9.96094 10.5594 7.75415 7.77393 7.75415C4.98853 7.75415 2.73059 9.96094 2.73059 12.6836L2.73059 16.1343C2.73059 16.3958 2.83685 16.6465 3.02606 16.8315C3.21521 17.0164 3.47174 17.1204 3.73926 17.1204L5.25226 17.1204C5.51978 17.1204 5.77637 17.0164 5.96552 16.8315C6.15466 16.6465 6.26093 16.3958 6.26093 16.1343L6.26093 13.6697C6.26093 13.408 6.15466 13.1572 5.96552 12.9724C5.77637 12.7876 5.51978 12.6836 5.25226 12.6836L3.73926 12.6836C3.73926 11.6377 4.16437 10.6345 4.92102 9.89502ZM3.73926 16.1343L3.73926 13.6697L5.25226 13.6697L5.25226 16.1343L3.73926 16.1343ZM10.2956 16.1343L10.2956 13.6697L11.8086 13.6697L11.8086 16.1343L10.2956 16.1343ZM21.2673 18.0437L21.2716 18.0427C21.2695 18.0437 21.2672 18.0447 21.265 18.0457L21.2673 18.0437Z" clip-rule="evenodd" fill="#FFFFFF" fill-opacity="1.000000" fill-rule="evenodd"/>
</svg>
